<svg fill="#000000" xmlns="http://www.w3.org/2000/svg" viewBox="0 0 100 100" width="100px" height="100px"><path d="M 33 18 C 21.413593 18 12 27.413593 12 39 C 12 51.036232 21.510089 61.933842 30.851562 69.886719 C 40.193036 77.839595 49.525391 82.878906 49.525391 82.878906 A 1.0001 1.0001 0 0 0 50.474609 82.878906 C 50.474609 82.878906 59.806964 77.839595 69.148438 69.886719 C 78.489911 61.933842 88 51.036232 88 39 C 88 27.413593 78.586407 18 67 18 C 60.138675 18 53.87468 21.368494 50 26.482422 C 46.12532 21.368494 39.861325 18 33 18 z M 33 20 C 39.631107 20 45.780707 23.429296 49.166016 28.550781 A 1.0001 1.0001 0 0 0 50.833984 28.550781 C 54.219293 23.429296 60.368893 20 67 20 C 77.505593 20 86 28.494407 86 39 C 86 49.963768 77.010089 60.566158 67.851562 68.363281 C 59.072733 75.83715 50.713598 80.443298 50 80.833984 C 49.286402 80.443298 40.927267 75.83715 32.148438 68.363281 C 22.989911 60.566158 14 49.963768 14 39 C 14 28.494407 22.494407 20 33 20 z M 33 24 C 24.733789 24 18 30.733789 18 39 C 18 46.658391 23.290681 54.304828 29.865234 60.859375 C 36.439788 67.413922 44.339514 72.881192 49.742188 76.097656 L 49.998047 76.251953 L 50.253906 76.097656 C 57.496405 71.775488 69.224915 63.406582 76.230469 53.794922 A 0.50005 0.50005 0 1 0 75.423828 53.205078 C 68.642719 62.508798 57.179187 70.758087 50 75.072266 C 44.663604 71.874864 36.973276 66.531922 30.572266 60.150391 C 24.084569 53.682437 19 46.192609 19 39 C 19 31.276211 25.276211 25 33 25 C 37.824866 25 42.428584 27.427516 44.994141 31.308594 C 46.10436 32.9881 47.985702 34 50 34 C 52.014298 34 53.89564 32.9881 55.005859 31.308594 C 57.571416 27.427516 62.175134 25 67 25 C 68.517081 25 69.973381 25.249838 71.34375 25.699219 A 0.50059575 0.50059575 0 0 0 71.65625 24.748047 C 70.190619 24.267427 68.626919 24 67 24 C 61.840866 24 56.932366 26.578891 54.169922 30.757812 C 53.244141 32.158307 51.679702 33 50 33 C 48.320298 33 46.755859 32.158307 45.830078 30.757812 C 43.067634 26.578891 38.159134 24 33 24 z M 73.484375 25.554688 A 0.50005 0.50005 0 0 0 73.275391 26.503906 C 74.906263 27.325611 76.346684 28.46361 77.539062 29.828125 A 0.50005 0.50005 0 1 0 78.292969 29.171875 C 77.019348 27.71439 75.475737 26.493623 73.724609 25.611328 A 0.50005 0.50005 0 0 0 73.484375 25.554688 z M 79.347656 30.994141 A 0.50005 0.50005 0 0 0 78.955078 31.759766 C 79.332612 32.380556 79.672379 33.020914 79.947266 33.689453 A 0.50005 0.50005 0 1 0 80.871094 33.310547 C 80.57198 32.583086 80.209013 31.895444 79.810547 31.240234 A 0.50005 0.50005 0 0 0 79.347656 30.994141 z M 81.023438 34.994141 A 0.50005 0.50005 0 0 0 80.570312 35.621094 C 80.650132 35.942325 80.72082 36.262124 80.777344 36.585938 A 0.50005 0.50005 0 1 0 81.761719 36.414062 C 81.700239 36.061876 81.625194 35.717675 81.541016 35.378906 A 0.50005 0.50005 0 0 0 81.023438 34.994141 z"/></svg>